<svg width="107" height="160" viewBox="0 0 107 160" fill="none" xmlns="http://www.w3.org/2000/svg">
<path d="M44.513 159.64C69.0968 159.64 89.026 158.154 89.026 156.321C89.026 154.488 69.0968 153.002 44.513 153.002C19.9291 153.002 0 154.488 0 156.321C0 158.154 19.9291 159.64 44.513 159.64Z" fill="#C7D2D7"/>
<path d="M12.1841 131.29C5.1091 123.55 2.59709 111.918 5.84709 101.948C8.97509 92.3528 16.9761 84.1538 16.8971 74.0618C16.8521 68.3928 14.1981 63.1038 13.0121 57.5598C10.4411 45.5428 14.9911 32.9298 22.1621 22.9498C28.6521 13.9178 37.4901 6.35983 47.9451 2.56683C58.4001 -1.22617 70.5161 -0.974174 80.2601 4.38783C90.0041 9.74983 96.8881 20.4958 96.5011 31.6118C96.1051 43.0258 88.5901 53.6068 89.6791 64.9758C90.3101 71.5648 93.7721 77.4878 96.1071 83.6818C99.0081 91.3738 100.199 99.7948 98.8661 107.907C97.5331 116.019 93.5791 123.787 87.3511 129.154C81.4721 134.22 73.8751 136.955 66.2101 138.165C57.1311 139.598 47.8501 139.533 38.7391 140.728C29.0661 141.996 18.7971 138.526 12.1841 131.29Z" fill="#C7D2D7"/>
<path d="M82.3929 91.3579C89.6849 104.678 88.621 134.522 81.17 146.564L78.438 148.388L79.1129 146.677L36.7729 111.299L38.1259 98.6309L82.3929 91.3579Z" fill="#6CA8BF"/>
<path d="M81.8611 99.8879L76.8791 92.2639L38.1281 98.6299L36.7751 111.298L73.8991 142.318L71.2961 123.064C70.4791 117.021 72.6121 110.953 77.0311 106.751L77.3911 106.408C79.3221 104.573 80.8441 102.351 81.8611 99.8879Z" fill="#468097"/>
<path d="M37.6481 89.2009H35.4881C30.1161 89.2009 25.5231 93.0629 24.6001 98.3549L36.2961 98.7809L37.6481 89.2009Z" fill="#F2C9AD"/>
<path d="M22.2851 97.085L21.7201 97.226C20.2051 97.604 18.9451 98.654 18.3011 100.077L16.3461 104.397C15.8881 105.408 15.7731 106.541 16.0161 107.624L17.0601 112.271C18.7501 111.941 19.9691 110.461 19.9691 108.739V106.452L22.2841 101.166V97.085H22.2851Z" fill="#F2C9AD"/>
<path d="M46.792 117.095L37.707 103.474C35.754 100.546 32.468 98.7878 28.948 98.7878C22.756 98.7878 17.901 104.106 18.463 110.273L21.318 141.576L38.24 140.277L40.45 147.963C41.936 153.13 46.663 156.689 52.039 156.689C54.307 156.689 56.53 156.049 58.451 154.843L60.76 153.394L46.792 117.095Z" fill="#454F6B"/>
<path d="M49.0601 122.99L50.5061 149.776C50.6471 152.38 48.5731 154.569 45.9651 154.569H45.2251C47.1841 155.912 49.5381 156.69 52.0391 156.69C54.3071 156.69 56.5301 156.05 58.4511 154.844L60.7601 153.395L49.0601 122.99Z" fill="#422C4F"/>
<path d="M33.822 110.486L33.6411 110.506L36.697 137.968L36.8779 137.948L33.822 110.486Z" fill="#422C4F"/>
<path d="M32.33 138.066L30.324 108.72L30.507 108.708L32.513 138.054L32.33 138.066Z" fill="#422C4F"/>
<path d="M22.6941 138.26L22.6741 138.079L34.5711 136.781L34.5911 136.962L22.6941 138.26Z" fill="#422C4F"/>
<path d="M28.481 148.92H32.919L31.769 140.807L24.02 141.369L24.243 144.383C24.298 145.127 24.212 145.864 24.01 146.567C25.53 146.536 27.054 146.772 28.481 147.298V148.92Z" fill="#F2C9AD"/>
<path d="M14.144 154.569C14.074 154.717 13.999 154.862 13.94 155.016L13.3 156.689H34.019L33.719 154.568H14.144V154.569Z" fill="#E4E4E0"/>
<path d="M32.9191 148.92H28.4811V147.298C27.0551 146.772 25.5301 146.536 24.0101 146.567C23.7521 147.465 23.3011 148.305 22.6641 149.015C21.7881 149.992 20.6281 150.668 19.3461 150.947L18.4401 151.145C16.5441 151.559 14.9681 152.834 14.1421 154.569H33.7171L32.9191 148.92Z" fill="#468097"/>
<path d="M31.769 140.806L24.02 141.368L24.194 143.707L31.893 141.678L31.769 140.806Z" fill="#EBA58E"/>
<path d="M60.0609 85.3059L71.1919 88.1809L58.2769 93.0959L60.0609 85.3059Z" fill="#F2C9AD"/>
<path d="M37.289 96.4769C35.459 97.0459 33.445 97.0009 31.641 96.3529C31.029 96.1329 30.37 95.7589 30.241 95.1209C30.06 94.2219 30.999 93.5519 31.708 92.9699C33.704 91.3349 34.551 88.7039 35.138 86.1919C35.725 83.6799 36.189 81.0379 37.706 78.9519C39.862 75.9859 44.107 74.7479 47.519 76.0889C48.972 74.7719 51.052 74.3769 52.976 74.7539C54.9 75.1309 56.623 76.2749 57.917 77.7479C59.212 79.2209 60.105 81.0099 60.756 82.8589C61.648 85.3889 62.07 88.3309 60.727 90.6529C59.551 92.6869 57.278 93.8059 55.062 94.5849C49.44 96.5639 42.983 94.7079 37.289 96.4769Z" fill="#6A3649"/>
<path d="M61.2652 90.8088L52.4332 93.1468C47.2002 92.0958 41.7992 92.2198 36.6192 93.5118L22.2852 97.0858V101.166L58.8192 106.452L65.3952 104.802C65.4952 99.8628 64.0482 94.8918 61.2652 90.8088Z" fill="#F2C9AD"/>
<path d="M64.9881 108.714C66.1751 102.569 64.7901 95.9749 61.2681 90.8069L73.4751 87.5759C78.4861 86.2499 83.3951 90.0289 83.3951 95.2119C83.3951 98.3009 81.5941 101.107 78.7851 102.394L64.9881 108.714Z" fill="#6CA8BF"/>
<path d="M61.2732 90.8218C63.5892 97.3008 63.2632 102.621 62.3982 105.553L65.3952 104.801C65.4952 99.8678 64.0502 94.9028 61.2732 90.8218Z" fill="#EBA58E"/>
<path d="M64.9882 108.714C65.2372 107.424 65.3732 106.113 65.4002 104.801L63.0012 105.402C63.8222 107.196 64.9882 108.714 64.9882 108.714Z" fill="#468097"/>
<path d="M64.8651 108.871L64.8991 108.697C65.4931 105.622 65.4441 102.334 64.7571 99.1869L64.9351 99.1479C65.6151 102.26 65.6751 105.509 65.1111 108.558L78.7481 102.311C81.5151 101.043 83.3041 98.2569 83.3041 95.2129H83.4871C83.4871 98.3289 81.6571 101.18 78.8241 102.478L64.8651 108.871Z" fill="#422C4F"/>
<path d="M33.4549 94.2046L22.8662 96.8547L22.9104 97.0313L33.4991 94.3811L33.4549 94.2046Z" fill="#422C4F"/>
<path d="M48.7142 105.082L29.8142 102.347L29.8402 102.166L48.7402 104.901L48.7142 105.082Z" fill="#422C4F"/>
<path d="M30.3 140.001C36.002 147.893 46.015 145.703 46.015 145.703L48.7271 140.001L32.731 134.572L30.3 140.001Z" fill="#422C4F"/>
<path d="M20.217 156.689H39.513V154.568H21.3181C20.8411 155.201 20.461 155.912 20.217 156.689Z" fill="white"/>
<path d="M35.1241 149.979V148.586C34.1081 147.877 32.9641 147.362 31.7691 147.034C31.3311 147.78 30.8101 148.476 30.2021 149.097C28.9431 150.383 27.3791 151.328 25.6551 151.845L24.8891 152.075C23.4421 152.509 22.2031 153.396 21.3171 154.568H39.5121V149.979H35.1241Z" fill="#6CA8BF"/>
<path d="M35.1241 149.979H39.513V149.318L44.485 140.696L36.349 136.872L32.3311 145.956C32.1671 146.328 31.974 146.685 31.769 147.034C32.964 147.362 34.1081 147.877 35.1241 148.586V149.979Z" fill="#F2C9AD"/>
<path d="M34.5811 140.87C38.1921 141.244 41.473 143.856 42.153 144.74L44.485 140.696L36.349 136.872L34.5811 140.87Z" fill="#EBA58E"/>
<path d="M79.114 146.676L62.368 108.606C60.797 105.035 57.264 102.729 53.363 102.729C49.485 102.729 45.969 105.007 44.384 108.547L30.3 140.001C39.2 137.359 46.015 145.703 46.015 145.703L51.439 134.299L54.4901 148.745C55.4681 153.376 59.554 156.689 64.287 156.689H69.101C74.631 156.689 79.114 152.206 79.114 146.676Z" fill="#454F6B"/>
<path d="M57.509 121.536C57.72 129.3 52.813 140.806 52.813 140.806L51.439 134.299L57.509 121.536Z" fill="#422C4F"/>
<path d="M46.0981 145.742L45.9321 145.663L58.6831 118.854L58.8491 118.933L46.0981 145.742Z" fill="#422C4F"/>
<path d="M44.3175 108.526L30.2053 139.966L30.3723 140.041L44.4845 108.601L44.3175 108.526Z" fill="#422C4F"/>
<path d="M45.8222 141.736C42.7702 138.126 37.7682 136.176 33.0782 136.763L33.0552 136.582C37.8042 135.983 42.8702 137.963 45.9612 141.619L45.8222 141.736Z" fill="#422C4F"/>
<path d="M53.6369 121.481L43.8325 141.632L43.9971 141.712L53.8014 121.561L53.6369 121.481Z" fill="#422C4F"/>
<path d="M50.2629 103.235C52.4999 104.188 52.946 107.691 52.701 110.094C52.645 110.645 53.044 111.137 53.593 111.208L54.2889 111.298C54.2709 111.828 54.659 112.285 55.184 112.353L56.575 112.534C56.575 112.989 56.927 113.367 57.381 113.399L57.963 113.44C58.426 113.473 58.833 113.135 58.886 112.674L58.947 112.142C59.837 112.278 60.652 111.627 60.722 110.729C61.137 105.382 58.022 101.164 54.705 101.164C51.056 101.165 50.4479 102.346 50.2629 103.235Z" fill="#F2C9AD"/>
<path d="M58.0269 113.534C58.0039 113.534 57.9809 113.533 57.9579 113.531L57.3759 113.49C56.9029 113.457 56.5269 113.079 56.4879 112.615L55.1729 112.444C54.6249 112.373 54.2189 111.922 54.1989 111.378L53.5829 111.298C52.9859 111.221 52.5508 110.677 52.6118 110.084L52.7928 110.102C52.7418 110.597 53.1069 111.052 53.6059 111.116L54.3849 111.217L54.3819 111.3C54.3649 111.786 54.7149 112.199 55.1969 112.261L56.6678 112.452V112.532C56.6678 112.937 56.9849 113.277 57.3899 113.306L57.9719 113.347C58.3839 113.371 58.7499 113.075 58.7979 112.662L58.8698 112.036L58.9629 112.05C59.3659 112.111 59.7649 112.005 60.0849 111.752C60.4069 111.497 60.6018 111.13 60.6328 110.721C60.7348 109.414 60.6289 108.137 60.3179 106.924C60.0759 105.98 59.7158 105.106 59.2498 104.325C58.0998 102.402 56.4019 101.255 54.7079 101.255C52.3379 101.255 50.9629 101.749 50.5059 102.765L50.3389 102.69C50.8289 101.601 52.2579 101.072 54.7079 101.072C56.4669 101.072 58.2239 102.253 59.4069 104.232C59.8829 105.028 60.2488 105.919 60.4958 106.879C60.8108 108.112 60.9189 109.409 60.8159 110.736C60.7799 111.19 60.5549 111.613 60.1989 111.896C59.8639 112.162 59.4469 112.283 59.0289 112.244L58.9778 112.684C58.9218 113.173 58.5109 113.534 58.0269 113.534Z" fill="#422C4F"/>
<path d="M59.0399 112.148L58.8568 112.139C59.0178 109.078 58.4699 106.948 58.4639 106.927L58.6409 106.881C58.6469 106.902 59.2019 109.059 59.0399 112.148Z" fill="#422C4F"/>
<path d="M56.667 112.54L56.4839 112.529C56.7779 107.916 56.1659 106.816 56.1589 106.805L56.3149 106.711C56.3429 106.754 56.966 107.84 56.667 112.54Z" fill="#422C4F"/>
<path d="M54.3797 111.308L54.1987 111.289C54.4917 108.488 54.2027 106.937 54.1997 106.922L54.3797 106.887C54.3817 106.902 54.6767 108.476 54.3797 111.308Z" fill="#422C4F"/>
<path d="M106.537 32.2109H8.60205C10.5661 29.7709 13.375 27.5379 16.439 26.8889C19.503 26.2399 22.7871 26.6799 25.5721 28.1139C24.6561 26.3029 25.185 23.8759 26.314 22.1899C27.443 20.5039 29.342 19.4109 31.338 19.0469C33.978 18.5649 36.819 19.3309 38.859 21.0749C40.096 15.1199 45.018 9.72991 51.051 8.95591C57.084 8.18191 63.429 11.5789 66.13 17.0289C70.05 13.9859 75.68 13.4329 80.121 15.6459C84.562 17.8589 87.536 22.7399 87.466 27.7019C90.558 26.1469 93.871 26.0099 97.265 26.6879C100.659 27.3659 104.281 29.5869 106.537 32.2109Z" fill="#99A3B0"/>
<path d="M26.1179 38.0168C26.1179 38.0168 26.2639 40.5418 27.2179 42.5998C27.4339 43.0648 27.9859 43.2678 28.4509 43.0518C28.9159 42.8358 29.1189 42.2838 28.9029 41.8188C27.9489 39.7608 26.1179 38.0168 26.1179 38.0168Z" fill="white"/>
<path d="M38.554 50.5627C38.554 50.5627 38.7 53.0877 39.654 55.1457C39.87 55.6107 40.422 55.8137 40.887 55.5977C41.352 55.3817 41.555 54.8297 41.339 54.3647C40.386 52.3067 38.554 50.5627 38.554 50.5627Z" fill="white"/>
<path d="M22.7991 56.8118C22.7991 56.8118 22.9451 59.3368 23.8991 61.3958C24.1151 61.8608 24.6671 62.0638 25.1321 61.8478C25.5971 61.6318 25.8001 61.0798 25.5841 60.6148C24.6301 58.5558 22.7991 56.8118 22.7991 56.8118Z" fill="white"/>
<path d="M33.957 61.9338C33.957 61.9338 34.103 64.4588 35.057 66.5178C35.273 66.9828 35.825 67.1858 36.29 66.9698C36.755 66.7538 36.958 66.2018 36.742 65.7368C35.789 63.6778 33.957 61.9338 33.957 61.9338Z" fill="white"/>
<path d="M30.9639 75.9368C30.9639 75.9368 31.1098 78.4618 32.0638 80.5198C32.2798 80.9848 32.8318 81.1878 33.2968 80.9718C33.7618 80.7558 33.9649 80.2038 33.7489 79.7388C32.7959 77.6808 30.9639 75.9368 30.9639 75.9368Z" fill="white"/>
<path d="M16.792 66.5068C16.792 66.5068 16.938 69.0318 17.892 71.0898C18.108 71.5548 18.66 71.7578 19.125 71.5418C19.59 71.3258 19.793 70.7738 19.577 70.3088C18.624 68.2508 16.792 66.5068 16.792 66.5068Z" fill="white"/>
<path d="M21.363 88.2649C21.363 88.2649 21.509 90.7899 22.463 92.8479C22.679 93.3129 23.231 93.5159 23.696 93.2999C24.161 93.0839 24.364 92.5319 24.148 92.0669C23.194 90.0089 21.363 88.2649 21.363 88.2649Z" fill="white"/>
<path d="M49.1938 70.8149C49.1938 70.8149 49.3399 73.3399 50.2939 75.3989C50.5099 75.8639 51.0619 76.0669 51.5269 75.8509C51.9919 75.6349 52.1949 75.0829 51.9789 74.6179C51.0249 72.5589 49.1938 70.8149 49.1938 70.8149Z" fill="white"/>
<path d="M53.5879 57.4158C53.5879 57.4158 53.7339 59.9408 54.6879 61.9998C54.9039 62.4648 55.4559 62.6678 55.9209 62.4518C56.3859 62.2358 56.5889 61.6838 56.3729 61.2188C55.4189 59.1598 53.5879 57.4158 53.5879 57.4158Z" fill="white"/>
<path d="M43.9648 38.0168C43.9648 38.0168 44.1108 40.5418 45.0648 42.5998C45.2808 43.0648 45.8329 43.2678 46.2979 43.0518C46.7629 42.8358 46.9658 42.2838 46.7498 41.8188C45.7958 39.7608 43.9648 38.0168 43.9648 38.0168Z" fill="white"/>
<path d="M64.085 38.0168C64.085 38.0168 64.2309 40.5418 65.1849 42.5998C65.4009 43.0648 65.9529 43.2678 66.4179 43.0518C66.8839 42.8358 67.0859 42.2838 66.8699 41.8188C65.9159 39.7608 64.085 38.0168 64.085 38.0168Z" fill="white"/>
<path d="M61.353 51.0359C61.353 51.0359 61.499 53.5609 62.453 55.6189C62.669 56.0839 63.221 56.2869 63.686 56.0709C64.151 55.8549 64.354 55.3029 64.138 54.8379C63.185 52.7799 61.353 51.0359 61.353 51.0359Z" fill="white"/>
<path d="M71.241 68.2539C71.241 68.2539 71.387 70.7789 72.341 72.8369C72.557 73.3019 73.109 73.5049 73.574 73.2889C74.039 73.0729 74.242 72.5209 74.026 72.0559C73.073 69.9979 71.241 68.2539 71.241 68.2539Z" fill="white"/>
<path d="M73.5559 56.8118C73.5559 56.8118 73.7019 59.3368 74.6559 61.3958C74.8719 61.8608 75.4239 62.0638 75.8889 61.8478C76.3539 61.6318 76.5569 61.0798 76.3409 60.6148C75.3879 58.5558 73.5559 56.8118 73.5559 56.8118Z" fill="white"/>
<path d="M62.553 75.3088C62.553 75.3088 62.699 77.8338 63.653 79.8918C63.869 80.3568 64.421 80.5598 64.886 80.3438C65.351 80.1278 65.554 79.5758 65.338 79.1108C64.385 77.0528 62.553 75.3088 62.553 75.3088Z" fill="white"/>
<path d="M80.5239 78.4978C80.5239 78.4978 80.6699 81.0228 81.6239 83.0808C81.8399 83.5458 82.3919 83.7488 82.8569 83.5328C83.3219 83.3168 83.5249 82.7648 83.3089 82.2998C82.3549 80.2418 80.5239 78.4978 80.5239 78.4978Z" fill="white"/>
<path d="M85.98 70.8149C85.98 70.8149 86.126 73.3399 87.08 75.3989C87.296 75.8639 87.848 76.0669 88.313 75.8509C88.778 75.6349 88.981 75.0829 88.765 74.6179C87.812 72.5589 85.98 70.8149 85.98 70.8149Z" fill="white"/>
<path d="M85.98 53.5969C85.98 53.5969 86.126 56.1219 87.08 58.1799C87.296 58.6449 87.848 58.8479 88.313 58.6319C88.778 58.4159 88.981 57.8639 88.765 57.3989C87.812 55.3409 85.98 53.5969 85.98 53.5969Z" fill="white"/>
<path d="M78.5701 38.9058C78.5701 38.9058 78.7161 41.4308 79.6701 43.4888C79.8861 43.9538 80.4381 44.1568 80.9031 43.9408C81.3681 43.7248 81.5711 43.1728 81.3551 42.7078C80.4021 40.6498 78.5701 38.9058 78.5701 38.9058Z" fill="white"/>
<path d="M91.3599 40.5779C91.3599 40.5779 91.5059 43.1029 92.4599 45.1609C92.6759 45.6259 93.2279 45.8289 93.6929 45.6129C94.1589 45.3969 94.3609 44.8449 94.1449 44.3799C93.1919 42.3219 91.3599 40.5779 91.3599 40.5779Z" fill="white"/>
</svg>
